<?xml version="1.0" encoding="utf-8"?>
<!-- Generator: Adobe Illustrator 16.0.4, SVG Export Plug-In . SVG Version: 6.00 Build 0)  -->
<!DOCTYPE svg PUBLIC "-//W3C//DTD SVG 1.1//EN" "http://www.w3.org/Graphics/SVG/1.1/DTD/svg11.dtd">
<svg version="1.1" id="Ebene_1" xmlns="http://www.w3.org/2000/svg" xmlns:xlink="http://www.w3.org/1999/xlink" x="0px" y="0px"
	 width="412.229px" height="329.349px" viewBox="0 0 412.229 329.349" enable-background="new 0 0 412.229 329.349"
	 xml:space="preserve">
<g>
	<path fill-rule="evenodd" clip-rule="evenodd" d="M254.141,67.302c-15.406-13.866-32.715-23.742-52.308-29.645
		C127.333,15.215,48.099,63.793,34.342,140.409c-13.055,72.702,34.034,141.158,106.336,154.587
		c72.968,13.552,143.583-36.837,154.71-110.545c2.124-14.068,2.141-28.224-0.615-42.255c-0.704-3.582,0.07-5.871,3.857-6.453
		c7.684-1.18,15.37-2.358,23.08-3.337c2.855-0.362,4.296,0.917,4.848,4.174c14.854,87.708-41.711,171.056-128.579,189.27
		C107.361,344.85,18.321,284.488,2.513,193.338C-12.764,105.256,43.055,22.003,130.863,3.766
		c51.775-10.753,98.579,1.696,139.743,35.099c3.656,2.967,4.358,5.362,1.686,9.433C267.482,55.624,261.969,62.136,254.141,67.302z"
		/>
	<path fill-rule="evenodd" clip-rule="evenodd" d="M223.531,84.761c-10.059,5.63-19.691,11.228-29.565,16.359
		c-1.819,0.945-4.805,0.565-6.938-0.146c-38.336-12.768-77.579,8.074-88.082,46.904c-10.265,37.95,16.113,77.925,55.103,83.504
		c36.791,5.265,69.651-18.043,76.709-54.502c0.645-3.326,2.009-5.49,5.186-7.146c9.115-4.752,17.998-9.948,27.1-15.041
		c5.471,31.755-11.246,80.74-58.605,101.338c-45.651,19.854-98.456,3.411-124.648-38.503
		C53.602,175.621,61.999,120.947,99.86,88.617C137.66,56.338,191.062,59.239,223.531,84.761z"/>
	<path fill-rule="evenodd" clip-rule="evenodd" d="M375.299,2.961c-4.436,17.329-8.693,33.966-13.057,51.012
		c16.519,4.689,32.706,9.284,49.986,14.189c-12.73,7.147-24.419,13.72-36.116,20.276c-11.744,6.584-23.48,13.183-35.27,19.685
		c-1.363,0.753-3.179,1.571-4.558,1.28c-25.717-5.427-48.435,1.978-70.314,15.098c-20.665,12.393-41.928,23.793-63.002,35.493
		c-2.477,1.375-3.542,2.767-3.611,5.719c-0.422,18.23-16.475,33.141-35.222,32.971c-18.861-0.172-33.848-15.216-34.815-33.544
		c-1.408-26.69,27.509-46.278,52.711-32.31c1.584,0.878,4.523,0.801,6.137-0.09c24.888-13.743,49.712-27.602,74.442-41.629
		c17.58-9.973,29.887-24.576,37.256-43.423c0.773-1.979,2.38-4.106,4.188-5.136c22.536-12.832,45.181-25.477,67.807-38.151
		C372.691,3.937,373.625,3.656,375.299,2.961z"/>
</g>
</svg>
