<?xml version="1.0" encoding="utf-8"?>
<!-- Generator: Adobe Illustrator 16.0.4, SVG Export Plug-In . SVG Version: 6.00 Build 0)  -->
<!DOCTYPE svg PUBLIC "-//W3C//DTD SVG 1.1//EN" "http://www.w3.org/Graphics/SVG/1.1/DTD/svg11.dtd">
<svg version="1.1" id="Ebene_1" xmlns="http://www.w3.org/2000/svg" xmlns:xlink="http://www.w3.org/1999/xlink" x="0px" y="0px"
	 width="42.038px" height="42.038px" viewBox="0 0 42.038 42.038" enable-background="new 0 0 42.038 42.038" xml:space="preserve">
<g>
	<path fill="#FFFFFF" d="M0,20.879C0,13.931,0,6.983,0,0c6.959,0,13.919,0,20.879,0c-0.15,0.197-0.28,0.414-0.453,0.587
		c-2.224,2.232-4.453,4.458-6.681,6.688c-0.168,0.168-0.328,0.344-0.492,0.516c0.026,0.054,0.052,0.109,0.078,0.164
		c2.315,0,4.63,0,6.936,0c0,4.169,0,8.24,0,12.321c-4.125,0-8.198,0-12.369,0c0-2.354,0-4.666,0-7.118
		c-0.29,0.273-0.461,0.426-0.623,0.588c-2.229,2.228-4.455,4.457-6.688,6.681C0.414,20.599,0.197,20.729,0,20.879z"/>
	<path fill-rule="evenodd" clip-rule="evenodd" fill="#FFFFFF" d="M21.159,0c6.948,0,13.896,0,20.879,0c0,6.959,0,13.919,0,20.879
		c-0.196-0.15-0.413-0.28-0.587-0.453c-2.232-2.224-4.459-4.453-6.688-6.681c-0.168-0.167-0.344-0.328-0.516-0.491
		c-0.055,0.026-0.109,0.052-0.164,0.078c0,2.315,0,4.63,0,6.936c-4.169,0-8.24,0-12.32,0c0-4.125,0-8.198,0-12.369
		c2.354,0,4.666,0,7.117,0c-0.273-0.29-0.426-0.461-0.588-0.624c-2.228-2.229-4.457-4.455-6.681-6.688
		C21.439,0.414,21.309,0.197,21.159,0z"/>
	<path fill-rule="evenodd" clip-rule="evenodd" fill="#FFFFFF" d="M42.038,21.159c0,6.948,0,13.896,0,20.879
		c-6.959,0-13.919,0-20.879,0c0.15-0.196,0.28-0.413,0.453-0.587c2.224-2.232,4.453-4.459,6.681-6.688
		c0.168-0.168,0.328-0.344,0.491-0.516c-0.025-0.055-0.052-0.109-0.077-0.164c-2.315,0-4.63,0-6.936,0c0-4.169,0-8.24,0-12.321
		c4.125,0,8.198,0,12.369,0c0,2.354,0,4.667,0,7.118c0.289-0.272,0.461-0.426,0.623-0.588c2.229-2.228,4.455-4.457,6.688-6.681
		C41.625,21.439,41.841,21.309,42.038,21.159z"/>
	<path fill-rule="evenodd" clip-rule="evenodd" fill="#FFFFFF" d="M20.879,42.038c-6.948,0-13.896,0-20.879,0
		c0-6.959,0-13.919,0-20.879c0.197,0.15,0.414,0.28,0.587,0.453c2.232,2.224,4.458,4.453,6.688,6.681
		c0.168,0.168,0.344,0.328,0.516,0.491c0.055-0.025,0.109-0.052,0.164-0.078c0-2.314,0-4.629,0-6.935c4.169,0,8.24,0,12.321,0
		c0,4.125,0,8.198,0,12.369c-2.354,0-4.667,0-7.117,0c0.272,0.289,0.425,0.46,0.587,0.623c2.228,2.229,4.457,4.455,6.681,6.688
		C20.599,41.625,20.729,41.841,20.879,42.038z"/>
	<path fill-rule="evenodd" clip-rule="evenodd" d="M20.879,42.038c-0.15-0.196-0.28-0.413-0.453-0.587
		c-2.224-2.232-4.453-4.459-6.681-6.688c-0.162-0.163-0.315-0.334-0.587-0.623c2.451,0,4.763,0,7.117,0c0-4.171,0-8.244,0-12.369
		c-4.081,0-8.152,0-12.321,0c0,2.306,0,4.62,0,6.935c-0.054,0.026-0.109,0.053-0.164,0.078c-0.172-0.163-0.348-0.323-0.516-0.491
		c-2.229-2.228-4.455-4.457-6.688-6.681C0.414,21.439,0.197,21.309,0,21.159c0-0.093,0-0.187,0-0.279
		c0.197-0.15,0.414-0.28,0.587-0.453c2.232-2.224,4.458-4.453,6.688-6.681c0.162-0.162,0.333-0.315,0.623-0.588
		c0,2.452,0,4.764,0,7.118c4.171,0,8.244,0,12.369,0c0-4.081,0-8.151,0-12.321c-2.306,0-4.621,0-6.936,0
		C13.306,7.9,13.28,7.845,13.254,7.791c0.164-0.172,0.324-0.348,0.492-0.516c2.228-2.229,4.457-4.455,6.681-6.688
		C20.599,0.414,20.729,0.197,20.879,0c0.093,0,0.187,0,0.279,0c0.15,0.197,0.28,0.414,0.453,0.587
		c2.224,2.232,4.453,4.458,6.681,6.688c0.162,0.162,0.314,0.333,0.588,0.624c-2.451,0-4.764,0-7.117,0c0,4.171,0,8.244,0,12.369
		c4.08,0,8.151,0,12.32,0c0-2.306,0-4.621,0-6.936c0.055-0.026,0.109-0.052,0.164-0.078c0.172,0.164,0.348,0.324,0.516,0.491
		c2.229,2.228,4.455,4.457,6.688,6.681c0.174,0.173,0.391,0.303,0.587,0.453c0,0.093,0,0.187,0,0.279
		c-0.196,0.15-0.413,0.28-0.587,0.453c-2.232,2.224-4.459,4.453-6.688,6.681c-0.162,0.162-0.334,0.315-0.623,0.588
		c0-2.451,0-4.764,0-7.118c-4.171,0-8.244,0-12.369,0c0,4.081,0,8.152,0,12.321c2.306,0,4.62,0,6.936,0
		c0.025,0.055,0.052,0.109,0.077,0.164c-0.163,0.172-0.323,0.348-0.491,0.516c-2.228,2.229-4.457,4.455-6.681,6.688
		c-0.173,0.174-0.303,0.391-0.453,0.587C21.066,42.038,20.972,42.038,20.879,42.038z"/>
</g>
</svg>
